<svg width="19" height="15" viewBox="0 0 19 15" fill="none" xmlns="http://www.w3.org/2000/svg">
<path d="M16.2898 3.95312C16.2898 4.12891 16.2898 4.26953 16.2898 4.44531C16.2898 9.33203 12.5984 14.9219 5.81328 14.9219C3.70391 14.9219 1.77031 14.3242 0.153126 13.2695C0.434376 13.3047 0.715626 13.3398 1.03203 13.3398C2.75469 13.3398 4.33672 12.7422 5.60234 11.7578C3.98516 11.7227 2.61406 10.668 2.15703 9.19141C2.40313 9.22656 2.61406 9.26172 2.86016 9.26172C3.17656 9.26172 3.52813 9.19141 3.80938 9.12109C2.12188 8.76953 0.856251 7.29297 0.856251 5.5V5.46484C1.34844 5.74609 1.94609 5.88672 2.54375 5.92188C1.52422 5.25391 0.891407 4.12891 0.891407 2.86328C0.891407 2.16016 1.06719 1.52734 1.38359 1C3.21172 3.21484 5.95391 4.69141 9.0125 4.86719C8.94219 4.58594 8.90703 4.30469 8.90703 4.02344C8.90703 1.98438 10.5594 0.332031 12.5984 0.332031C13.6531 0.332031 14.6023 0.753906 15.3055 1.49219C16.1141 1.31641 16.9227 1 17.6258 0.578125C17.3445 1.45703 16.782 2.16016 16.0086 2.61719C16.7469 2.54688 17.4852 2.33594 18.118 2.05469C17.6258 2.79297 16.993 3.42578 16.2898 3.95312Z" fill="#FFBA00"/>
</svg>
