<svg width="12" height="18" viewBox="0 0 12 18" fill="none" xmlns="http://www.w3.org/2000/svg">
<path d="M9.97461 2.41406C9.97461 2.41406 9.69954 2.139 9.14941 1.58887C8.59928 1.03874 7.54948 0.763672 6 0.763672C4.45052 0.763672 3.12565 1.3138 2.02539 2.41406C0.92513 3.51432 0.375 4.83919 0.375 6.38867C0.375 7.10482 0.654948 8.10091 1.21484 9.37695C1.65755 10.3796 2.23698 11.4993 2.95312 12.7363C3.33073 13.3874 3.73112 14.0449 4.1543 14.709C4.57747 15.373 4.90625 15.8809 5.14062 16.2324L5.49219 16.7402L6 17.4824L6.50781 16.7402C7.35417 15.5163 8.20052 14.1816 9.04688 12.7363C9.76302 11.4993 10.3424 10.3796 10.7852 9.37695C11.3451 8.10091 11.625 7.10482 11.625 6.38867C11.625 4.83919 11.0749 3.51432 9.97461 2.41406ZM2.9043 3.29297C2.9043 3.29297 3.11751 3.07975 3.54395 2.65332C3.97038 2.22689 4.78906 2.01367 6 2.01367C7.21094 2.01367 8.24284 2.4401 9.0957 3.29297C9.94857 4.14583 10.375 5.17773 10.375 6.38867C10.375 6.94857 10.1341 7.77539 9.65234 8.86914C9.27474 9.72852 8.70833 10.8092 7.95312 12.1113C7.3151 13.2051 6.66406 14.2467 6 15.2363C5.33594 14.2467 4.6849 13.2051 4.04688 12.1113C3.29167 10.8092 2.72526 9.72852 2.34766 8.86914C1.86589 7.77539 1.625 6.94857 1.625 6.38867C1.625 5.17773 2.05143 4.14583 2.9043 3.29297ZM6.88867 5.5C6.88867 5.5 6.82845 5.43978 6.70801 5.31934C6.58756 5.19889 6.35156 5.13867 6 5.13867C5.64844 5.13867 5.35221 5.25911 5.11133 5.5C4.87044 5.74089 4.75 6.03711 4.75 6.38867C4.75 6.74023 4.87044 7.03646 5.11133 7.27734C5.35221 7.51823 5.64844 7.63867 6 7.63867C6.35156 7.63867 6.64779 7.51823 6.88867 7.27734C7.12956 7.03646 7.25 6.74023 7.25 6.38867C7.25 6.03711 7.12956 5.74089 6.88867 5.5Z" fill="#FFBA00"/>
</svg>
