<svg width="18" height="18" viewBox="0 0 18 18" fill="none" xmlns="http://www.w3.org/2000/svg">
<path d="M5.32973 1.09589C5.0563 0.874533 4.75031 0.763855 4.41176 0.763855C4.07322 0.763855 3.76723 0.874533 3.4938 1.09589L3.45473 1.11542L3.4352 1.13495L1.48208 3.14667L1.50161 3.1662C1.20213 3.43964 1.00682 3.77167 0.915671 4.16229C0.824525 4.55292 0.844056 4.92401 0.974265 5.27557V5.2951C1.32583 6.31073 1.87596 7.45331 2.62466 8.72284C3.37335 9.99237 4.33364 11.2131 5.50551 12.3849C7.4326 14.312 9.79588 15.8224 12.5954 16.9162H12.6149C13.4092 17.1896 14.1318 17.0464 14.7829 16.4865L16.7555 14.5139C17.0159 14.2534 17.1461 13.9312 17.1461 13.5471C17.1461 13.1629 17.0159 12.8407 16.7555 12.5803L14.2165 10.0412L14.1969 10.0021C13.9365 9.74172 13.611 9.61151 13.2204 9.61151C12.8297 9.61151 12.5042 9.74172 12.2438 10.0021L10.9938 11.2521C10.0303 10.7834 9.17739 10.1974 8.4352 9.49432C7.71906 8.81724 7.13963 7.97089 6.69692 6.95526L7.94692 5.70526C8.20734 5.44484 8.33755 5.12583 8.33755 4.74823C8.33755 4.37063 8.20083 4.05162 7.92739 3.7912L7.94692 3.77167L7.88833 3.71307L5.3688 1.11542L5.32973 1.09589ZM4.27505 2.07245C4.32713 2.03339 4.3727 2.01385 4.41176 2.01385C4.45083 2.01385 4.4964 2.03339 4.54848 2.07245L7.10708 4.68964C7.14614 4.7287 7.13312 4.77427 7.06801 4.82635L5.50551 6.38885L5.21255 6.66229L5.34926 7.05292C5.40135 7.19615 5.48273 7.3882 5.59341 7.62909C5.70408 7.86998 5.95148 8.28664 6.33559 8.87909C6.71971 9.47154 7.13312 9.9826 7.57583 10.4123L7.71255 10.5295C8.14223 10.9201 8.62075 11.2879 9.14809 11.633C9.67544 11.978 10.0954 12.2222 10.4079 12.3654L10.8766 12.5803L11.2672 12.756L13.1227 10.9006C13.1748 10.8485 13.2073 10.8224 13.2204 10.8224C13.2334 10.8224 13.2659 10.8485 13.318 10.9006L15.8766 13.4592C15.9287 13.5113 15.9547 13.5405 15.9547 13.5471C15.9547 13.5536 15.9287 13.5829 15.8766 13.6349L13.9625 15.549C13.6891 15.7834 13.3701 15.842 13.0055 15.7248C10.3623 14.6831 8.15525 13.2769 6.38442 11.506C5.29067 10.4123 4.39223 9.2632 3.68911 8.05878C2.98598 6.85435 2.47166 5.7899 2.14614 4.86542C2.02895 4.5399 2.09406 4.26646 2.34145 4.0451L2.38051 4.00604L4.27505 2.07245Z" fill="#FFBA00"/>
</svg>
