<svg width="17" height="17" viewBox="0 0 17 17" fill="none" xmlns="http://www.w3.org/2000/svg">
<path d="M8.19609 4.56641C10.4109 4.56641 12.2391 6.39453 12.2391 8.60938C12.2391 10.8594 10.4109 12.6523 8.19609 12.6523C5.94609 12.6523 4.15312 10.8594 4.15312 8.60938C4.15312 6.39453 5.94609 4.56641 8.19609 4.56641ZM8.19609 11.2461C9.6375 11.2461 10.7977 10.0859 10.7977 8.60938C10.7977 7.16797 9.6375 6.00781 8.19609 6.00781C6.71953 6.00781 5.55937 7.16797 5.55937 8.60938C5.55937 10.0859 6.75469 11.2461 8.19609 11.2461ZM13.3289 4.42578C13.3289 4.95312 12.907 5.375 12.3797 5.375C11.8523 5.375 11.4305 4.95312 11.4305 4.42578C11.4305 3.89844 11.8523 3.47656 12.3797 3.47656C12.907 3.47656 13.3289 3.89844 13.3289 4.42578ZM16.0008 5.375C16.0711 6.67578 16.0711 10.5781 16.0008 11.8789C15.9305 13.1445 15.6492 14.2344 14.7352 15.1836C13.8211 16.0977 12.6961 16.3789 11.4305 16.4492C10.1297 16.5195 6.22734 16.5195 4.92656 16.4492C3.66094 16.3789 2.57109 16.0977 1.62187 15.1836C0.707812 14.2344 0.426562 13.1445 0.35625 11.8789C0.285937 10.5781 0.285937 6.67578 0.35625 5.375C0.426562 4.10938 0.707812 2.98438 1.62187 2.07031C2.57109 1.15625 3.66094 0.875 4.92656 0.804688C6.22734 0.734375 10.1297 0.734375 11.4305 0.804688C12.6961 0.875 13.8211 1.15625 14.7352 2.07031C15.6492 2.98438 15.9305 4.10938 16.0008 5.375ZM14.3133 13.25C14.7352 12.2305 14.6297 9.76953 14.6297 8.60938C14.6297 7.48438 14.7352 5.02344 14.3133 3.96875C14.032 3.30078 13.5047 2.73828 12.8367 2.49219C11.782 2.07031 9.32109 2.17578 8.19609 2.17578C7.03594 2.17578 4.575 2.07031 3.55547 2.49219C2.85234 2.77344 2.325 3.30078 2.04375 3.96875C1.62187 5.02344 1.72734 7.48438 1.72734 8.60938C1.72734 9.76953 1.62187 12.2305 2.04375 13.25C2.325 13.9531 2.85234 14.4805 3.55547 14.7617C4.575 15.1836 7.03594 15.0781 8.19609 15.0781C9.32109 15.0781 11.782 15.1836 12.8367 14.7617C13.5047 14.4805 14.0672 13.9531 14.3133 13.25Z" fill="#FFBA00"/>
</svg>
