<svg width="71" height="71" viewBox="0 0 71 71" fill="none" xmlns="http://www.w3.org/2000/svg">
<rect x="0.980469" y="0.269531" width="70" height="70" rx="10" fill="#FFBA00"/>
<path d="M17.8516 20.8216V46.204H21.6665C21.9435 47.2616 22.51 48.1304 23.3662 48.8102C24.2224 49.4901 25.2044 49.8301 26.3124 49.8301C27.4203 49.8301 28.4024 49.4901 29.2585 48.8102C30.1147 48.1304 30.6813 47.2616 30.9583 46.204H41.0055C41.2825 47.2616 41.849 48.1304 42.7052 48.8102C43.5614 49.4901 44.5434 49.8301 45.6514 49.8301C46.7593 49.8301 47.7414 49.4901 48.5975 48.8102C49.4537 48.1304 50.0203 47.2616 50.2973 46.204H54.1122V33.6261L53.7722 33.2484L46.5201 25.9963L46.1424 25.6563H39.6079V20.8216H17.8516ZM20.2689 23.239H37.1906V43.7866H30.9583C30.6813 42.729 30.1147 41.8603 29.2585 41.1804C28.4024 40.5005 27.4203 40.1606 26.3124 40.1606C25.2044 40.1606 24.2224 40.5005 23.3662 41.1804C22.51 41.8603 21.9435 42.729 21.6665 43.7866H20.2689V23.239ZM39.6079 28.0737H45.1226L51.6948 34.6459V43.7866H50.2973C50.0203 42.729 49.4537 41.8603 48.5975 41.1804C47.7414 40.5005 46.7593 40.1606 45.6514 40.1606C44.5434 40.1606 43.5614 40.5005 42.7052 41.1804C41.849 41.8603 41.2825 42.729 41.0055 43.7866H39.6079V28.0737ZM24.5938 43.2767C24.5938 43.2767 24.7102 43.1603 24.9432 42.9273C25.1761 42.6944 25.6325 42.578 26.3124 42.578C26.9923 42.578 27.5651 42.8109 28.031 43.2767C28.4968 43.7426 28.7297 44.3154 28.7297 44.9953C28.7297 45.6752 28.4968 46.2481 28.031 46.7139C27.5651 47.1798 26.9923 47.4127 26.3124 47.4127C25.6325 47.4127 25.0596 47.1798 24.5938 46.7139C24.1279 46.2481 23.895 45.6752 23.895 44.9953C23.895 44.3154 24.1279 43.7426 24.5938 43.2767ZM43.9328 43.2767C43.9328 43.2767 44.0492 43.1603 44.2822 42.9273C44.5151 42.6944 44.9715 42.578 45.6514 42.578C46.3313 42.578 46.9041 42.8109 47.37 43.2767C47.8358 43.7426 48.0687 44.3154 48.0687 44.9953C48.0687 45.6752 47.8358 46.2481 47.37 46.7139C46.9041 47.1798 46.3313 47.4127 45.6514 47.4127C44.9715 47.4127 44.3986 47.1798 43.9328 46.7139C43.4669 46.2481 43.234 45.6752 43.234 44.9953C43.234 44.3154 43.4669 43.7426 43.9328 43.2767Z" fill="white"/>
</svg>
