<svg width="71" height="71" viewBox="0 0 71 71" fill="none" xmlns="http://www.w3.org/2000/svg">
<rect x="0.980469" y="0.269531" width="70" height="70" rx="10" fill="#FFBA00"/>
<path d="M44.2522 23.2384C43.6226 23.2635 42.9931 23.3202 42.3636 23.4083C41.7341 23.4965 41.1801 23.5846 40.7017 23.6727C40.2232 23.7609 39.6629 23.8994 39.0208 24.0882C38.3787 24.2771 37.8877 24.4282 37.5477 24.5415C37.2078 24.6548 36.7105 24.8374 36.0558 25.0892C35.1744 25.3913 34.4945 25.618 34.0161 25.7691C33.5377 25.9201 32.9144 26.0964 32.1464 26.2979C31.3784 26.4993 30.6167 26.6441 29.8612 26.7322C29.1058 26.8204 28.3252 26.8644 27.5194 26.8644C26.9402 26.8896 26.3611 26.877 25.7819 26.8267C25.2028 26.7763 24.6299 26.707 24.0633 26.6189C23.4967 26.5308 22.9302 26.4112 22.3636 26.2601C21.797 26.109 21.2242 25.9327 20.645 25.7313L19.0586 25.1647V45.8257L19.8518 46.1279C21.967 46.8581 24.0948 47.2736 26.2352 47.3743C26.5877 47.3995 26.9277 47.4121 27.255 47.4121C28.3882 47.4121 29.5465 47.3051 30.73 47.0911C31.9135 46.877 32.8515 46.663 33.544 46.4489C34.2364 46.2349 35.187 45.9264 36.3957 45.5235C37.6548 45.0703 38.6305 44.7429 39.323 44.5415C40.0155 44.34 40.9472 44.1449 42.1181 43.956C43.289 43.7672 44.4536 43.7105 45.6119 43.786C46.5436 43.8112 47.4879 43.9245 48.4448 44.126C49.4017 44.3274 50.346 44.5918 51.2777 44.9192L52.9018 45.4858V24.8248L52.1086 24.5226C51.0762 24.1449 50.0186 23.849 48.9358 23.635C47.8531 23.4209 46.7703 23.3013 45.6875 23.2761C45.2342 23.251 44.7558 23.2384 44.2522 23.2384ZM44.3277 25.6557C44.3781 25.6557 44.4347 25.6557 44.4977 25.6557C44.5606 25.6557 44.6236 25.6557 44.6865 25.6557C44.7495 25.6557 44.8124 25.6557 44.8754 25.6557C44.9384 25.6557 44.995 25.6557 45.0454 25.6557C45.0957 25.6557 45.1524 25.6557 45.2153 25.6557C45.2783 25.6557 45.3412 25.6557 45.4042 25.6557C45.4672 25.6557 45.5364 25.6557 45.6119 25.6557C46.0148 25.6809 46.4555 25.7187 46.9339 25.7691C47.1102 26.4238 47.469 26.9714 48.0104 27.4121C48.5518 27.8528 49.1751 28.0731 49.8801 28.0731C50.0816 28.0731 50.283 28.0479 50.4845 27.9976V39.0268C50.283 38.9765 50.0816 38.9513 49.8801 38.9513C49.1499 38.9513 48.5015 39.1905 47.9349 39.669C47.3683 40.1474 47.0221 40.7391 46.8962 41.4442C46.5185 41.419 46.1156 41.3939 45.6875 41.3687C44.4284 41.3183 43.1442 41.3939 41.8348 41.5953C40.5254 41.7967 39.4804 42.0108 38.6998 42.2374C37.9192 42.464 36.8867 42.804 35.6025 43.2572C34.3435 43.6853 33.3614 44.0064 32.6563 44.2204C31.9513 44.4345 31.0133 44.6296 29.8424 44.8059C28.6714 44.9821 27.5194 45.0451 26.3863 44.9947C25.9582 44.9696 25.4923 44.9318 24.9887 44.8814C24.8376 44.2015 24.4914 43.6476 23.95 43.2195C23.4086 42.7914 22.7854 42.5774 22.0803 42.5774C21.8789 42.5774 21.6774 42.6025 21.476 42.6529V31.6236C21.6774 31.674 21.8789 31.6992 22.0803 31.6992C22.8357 31.6992 23.4904 31.46 24.0444 30.9815C24.5984 30.5031 24.9384 29.8987 25.0643 29.1685C25.9708 29.244 26.7892 29.2818 27.5194 29.2818C28.2748 29.2818 29.0177 29.2377 29.7479 29.1496C30.4782 29.0615 31.114 28.967 31.6554 28.8663C32.1968 28.7656 32.82 28.6145 33.5251 28.4131C34.2301 28.2116 34.7778 28.0479 35.1681 27.922C35.5584 27.7961 36.1187 27.6073 36.849 27.3555C37.8562 26.9777 38.6557 26.7007 39.2475 26.5245C39.8392 26.3482 40.6135 26.1657 41.5704 25.9768C42.5273 25.7879 43.4464 25.6809 44.3277 25.6557ZM39.3985 31.0571C39.3985 31.0571 39.1625 30.7612 38.6903 30.1694C38.2182 29.5777 37.3148 29.2818 35.9802 29.2818C34.6456 29.2818 33.5062 29.8736 32.5619 31.0571C31.6176 32.2406 31.1455 33.6633 31.1455 35.3252C31.1455 36.9872 31.6176 38.4099 32.5619 39.5934C33.5062 40.7769 34.6456 41.3687 35.9802 41.3687C37.3148 41.3687 38.4543 40.7769 39.3985 39.5934C40.3428 38.4099 40.815 36.9872 40.815 35.3252C40.815 33.6633 40.3428 32.2406 39.3985 31.0571ZM34.2805 32.7757C34.2805 32.7757 34.4001 32.5962 34.6393 32.2374C34.8785 31.8786 35.3255 31.6992 35.9802 31.6992C36.6349 31.6992 37.2015 32.058 37.6799 32.7757C38.1584 33.4933 38.3976 34.3432 38.3976 35.3252C38.3976 36.3073 38.1584 37.1572 37.6799 37.8748C37.2015 38.5925 36.6349 38.9513 35.9802 38.9513C35.3255 38.9513 34.7589 38.5925 34.2805 37.8748C33.8021 37.1572 33.5628 36.3073 33.5628 35.3252C33.5628 34.3432 33.8021 33.4933 34.2805 32.7757ZM46.3296 32.228C46.3296 32.228 46.2415 32.1398 46.0652 31.9636C45.8889 31.7873 45.549 31.6992 45.0454 31.6992C44.5418 31.6992 44.1137 31.8754 43.7611 32.228C43.4086 32.5805 43.2323 33.0086 43.2323 33.5122C43.2323 34.0158 43.4086 34.4439 43.7611 34.7964C44.1137 35.149 44.5418 35.3252 45.0454 35.3252C45.549 35.3252 45.9771 35.149 46.3296 34.7964C46.6821 34.4439 46.8584 34.0158 46.8584 33.5122C46.8584 33.0086 46.6821 32.5805 46.3296 32.228ZM28.1993 35.854C28.1993 35.854 28.1112 35.7659 27.9349 35.5896C27.7586 35.4134 27.4187 35.3252 26.9151 35.3252C26.4114 35.3252 25.9834 35.5015 25.6308 35.854C25.2783 36.2066 25.102 36.6346 25.102 37.1383C25.102 37.6419 25.2783 38.07 25.6308 38.4225C25.9834 38.775 26.4114 38.9513 26.9151 38.9513C27.4187 38.9513 27.8468 38.775 28.1993 38.4225C28.5518 38.07 28.7281 37.6419 28.7281 37.1383C28.7281 36.6346 28.5518 36.2066 28.1993 35.854Z" fill="white"/>
</svg>
