<svg width="41" height="36" viewBox="0 0 41 36" fill="none" xmlns="http://www.w3.org/2000/svg">
<path d="M36.8672 0.269531C38.8984 0.269531 40.6172 1.98828 40.6172 4.01953V22.7695C40.6172 29.7227 34.9922 35.2695 28.1172 35.2695H27.4922C26.3984 35.2695 25.6172 34.4883 25.6172 33.3945V29.6445C25.6172 28.6289 26.3984 27.7695 27.4922 27.7695H28.1172C30.8516 27.7695 33.1172 25.582 33.1172 22.7695V17.7695H26.8672C24.7578 17.7695 23.1172 16.1289 23.1172 14.0195V4.01953C23.1172 1.98828 24.7578 0.269531 26.8672 0.269531H36.8672ZM14.3672 0.269531C16.3984 0.269531 18.1172 1.98828 18.1172 4.01953V22.7695C18.1172 29.7227 12.4922 35.2695 5.61719 35.2695H4.99219C3.89844 35.2695 3.11719 34.4883 3.11719 33.3945V29.6445C3.11719 28.6289 3.89844 27.7695 4.99219 27.7695H5.61719C8.35156 27.7695 10.6172 25.582 10.6172 22.7695V17.7695H4.36719C2.25781 17.7695 0.617188 16.1289 0.617188 14.0195V4.01953C0.617188 1.98828 2.25781 0.269531 4.36719 0.269531H14.3672Z" fill="#FFBA00"/>
</svg>
