<svg width="41" height="41" viewBox="0 0 41 41" fill="none" xmlns="http://www.w3.org/2000/svg">
<g clip-path="url(#clip0_1_393)">
<path d="M17.1277 1.79039C17.1277 1.5134 17.0333 1.28048 16.8444 1.09162C16.6556 0.90276 16.4227 0.808331 16.1457 0.808331C15.8687 0.808331 15.6358 0.90276 15.4469 1.09162C15.258 1.28048 15.1636 1.5134 15.1636 1.79039C15.1636 3.04944 15.2643 4.20776 15.4658 5.26537C15.6672 6.32297 15.8687 7.26725 16.0701 8.09823C16.2464 8.9292 16.3849 9.65315 16.4856 10.2701C16.5863 10.887 16.5234 11.334 16.2968 11.611C16.1205 11.8376 15.7806 12.0139 15.2769 12.1398C14.7733 12.2657 14.0934 12.3538 13.2373 12.4042V11.9131V11.4599V3.71674C13.2373 3.43974 13.1428 3.20682 12.954 3.01796C12.7651 2.82911 12.5448 2.73468 12.293 2.73468C12.016 2.73468 11.7831 2.82911 11.5942 3.01796C11.4054 3.20682 11.3109 3.43974 11.3109 3.71674V11.4599V11.9131V12.4042C10.48 12.3538 9.80636 12.2657 9.29015 12.1398C8.77394 12.0139 8.4277 11.8376 8.25143 11.611C8.02481 11.334 7.96185 10.887 8.06258 10.2701C8.1633 9.65315 8.31439 8.9292 8.51583 8.09823C8.6921 7.24207 8.88096 6.29149 9.08241 5.24648C9.28385 4.20147 9.38458 3.04944 9.38458 1.79039C9.38458 1.5134 9.29015 1.28048 9.10129 1.09162C8.91244 0.90276 8.67951 0.808331 8.40252 0.808331C8.15071 0.808331 7.93038 0.90276 7.74152 1.09162C7.55266 1.28048 7.45823 1.5134 7.45823 1.79039C7.45823 2.92353 7.3638 3.98743 7.17495 4.98208C6.98609 5.97673 6.80353 6.86436 6.62726 7.64497C6.37545 8.72775 6.20548 9.69722 6.11735 10.5534C6.02921 11.4095 6.23696 12.165 6.74058 12.8197C7.11829 13.2729 7.66598 13.6255 8.38363 13.8773C9.10129 14.1291 10.0519 14.2802 11.2354 14.3305C11.185 15.6651 11.1095 16.9619 11.0088 18.221C10.8828 19.48 10.7444 20.6887 10.5933 21.847C10.4422 23.0054 10.2785 24.1133 10.1022 25.1709C9.92597 26.2285 9.76229 27.2358 9.61121 28.1927C9.18313 30.7611 8.89984 32.8889 8.76135 34.576C8.62285 36.2632 8.90614 37.5474 9.61121 38.4287C9.91338 38.7813 10.2911 39.0457 10.7444 39.2219C11.1976 39.3982 11.7138 39.4863 12.293 39.4863C12.8721 39.4863 13.3821 39.3982 13.8227 39.2219C14.2634 39.0457 14.6348 38.7813 14.937 38.4287C15.6672 37.5474 15.9568 36.2632 15.8057 34.576C15.6546 32.8889 15.3651 30.7611 14.937 28.1927C14.7859 27.2358 14.6222 26.2285 14.446 25.1709C14.2697 24.1133 14.106 23.0054 13.9549 21.847C13.8038 20.6887 13.6779 19.48 13.5772 18.221C13.4513 16.9619 13.3632 15.6651 13.3128 14.3305C14.4963 14.2802 15.4469 14.1354 16.1646 13.8961C16.8822 13.6569 17.4299 13.2981 17.8076 12.8197C18.3364 12.165 18.5505 11.4158 18.4497 10.5723C18.349 9.72869 18.1853 8.76552 17.9587 7.68274C17.7573 6.87695 17.5684 5.97673 17.3921 4.98208C17.2159 3.98743 17.1277 2.92353 17.1277 1.79039ZM13.4639 37.1823C13.3884 37.2578 13.2687 37.3396 13.1051 37.4278C12.9414 37.5159 12.6707 37.56 12.293 37.56C11.9153 37.56 11.6383 37.5159 11.462 37.4278C11.2857 37.3396 11.1724 37.2578 11.1221 37.1823C10.6688 36.6535 10.5366 35.5896 10.7255 33.9906C10.9143 32.3916 11.1724 30.5723 11.4998 28.5326C11.6257 27.8024 11.7579 27.0343 11.8964 26.2285C12.0349 25.4227 12.1671 24.5918 12.293 23.7356C12.4189 24.5918 12.5448 25.4165 12.6707 26.2097C12.7966 27.0029 12.9225 27.7772 13.0484 28.5326C13.4009 30.5723 13.6653 32.3916 13.8416 33.9906C14.0179 35.5896 13.892 36.6535 13.4639 37.1823ZM32.3496 28.1927C32.1734 27.0595 31.9845 25.8634 31.7831 24.6044C31.5816 23.3453 31.3928 22.017 31.2165 20.6195C31.0402 19.2219 30.9017 17.7551 30.801 16.2191C30.7003 14.6831 30.6499 13.0967 30.6499 11.4599V1.79039C30.6499 1.56376 30.5807 1.36231 30.4422 1.18605C30.3037 1.00978 30.1337 0.896465 29.9323 0.846104C29.7308 0.795738 29.5231 0.808331 29.309 0.883873C29.095 0.959415 28.9376 1.09791 28.8369 1.29936C27.8548 3.01167 26.9987 4.87506 26.2684 6.88954C25.5382 8.90402 24.9275 10.7926 24.4365 12.5553C23.9455 14.3179 23.5741 15.8036 23.3223 17.0123C23.0704 18.221 22.9445 18.8883 22.9445 19.0142C22.9194 19.1401 22.9194 19.2723 22.9445 19.4108C22.9697 19.5493 23.0327 19.6815 23.1334 19.8074C23.2341 19.9081 23.3474 19.9899 23.4733 20.0529C23.5992 20.1159 23.7377 20.1473 23.8888 20.1473H28.1948C28.0437 21.633 27.8611 23.0494 27.6471 24.3966C27.4331 25.7438 27.2253 27.0091 27.0239 28.1927C26.5958 30.7611 26.3062 32.8889 26.1551 34.576C26.004 36.2632 26.2936 37.5474 27.0239 38.4287C27.326 38.7813 27.6975 39.0457 28.1381 39.2219C28.5788 39.3982 29.0887 39.4863 29.6679 39.4863C30.247 39.4863 30.7632 39.3982 31.2165 39.2219C31.6698 39.0457 32.0475 38.7813 32.3496 38.4287C33.0547 37.5474 33.338 36.2632 33.1995 34.576C33.061 32.8889 32.7777 30.7611 32.3496 28.1927ZM25.0597 18.221C25.1856 17.6418 25.3493 16.899 25.5508 15.9925C25.7774 15.1111 26.0418 14.1228 26.344 13.0274C26.6461 11.932 26.9987 10.78 27.4016 9.57131C27.7793 8.36263 28.22 7.16653 28.7236 5.98302V11.4599C28.7236 12.6434 28.6921 13.8017 28.6292 14.9349C28.5662 16.068 28.4844 17.1634 28.3836 18.221H25.0597ZM30.8388 37.1823C30.7884 37.2578 30.6751 37.3396 30.4988 37.4278C30.3226 37.5159 30.0456 37.56 29.6679 37.56C29.2902 37.56 29.0195 37.5159 28.8558 37.4278C28.6921 37.3396 28.5725 37.2578 28.497 37.1823C28.0689 36.6535 27.943 35.5896 28.1192 33.9906C28.2955 32.3916 28.5599 30.5723 28.9124 28.5326C29.0383 27.8024 29.1642 27.0343 29.2902 26.2285C29.4161 25.4227 29.542 24.5918 29.6679 23.7356C29.7938 24.5918 29.926 25.4165 30.0645 26.2097C30.203 27.0029 30.3352 27.7772 30.4611 28.5326C30.7884 30.5723 31.0465 32.3916 31.2354 33.9906C31.4242 35.5896 31.292 36.6535 30.8388 37.1823Z" fill="#FFBA00"/>
</g>
<defs>
<clipPath id="clip0_1_393">
<rect width="40" height="40" fill="white" transform="matrix(1 0 0 -1 0.980469 40.0898)"/>
</clipPath>
</defs>
</svg>
