<svg width="41" height="41" viewBox="0 0 41 41" fill="none" xmlns="http://www.w3.org/2000/svg">
<g clip-path="url(#clip0_1_397)">
<path d="M20.6388 39.4863C19.0776 39.4863 17.5919 39.1779 16.1818 38.5609C14.7716 37.944 13.5252 37.069 12.4424 35.9358C11.3596 34.7523 10.5224 33.3862 9.9306 31.8376C9.33885 30.289 9.04297 28.6459 9.04297 26.9084C9.04297 25.4983 9.19405 24.1637 9.49623 22.9046C9.77322 21.6708 10.1572 20.4873 10.6483 19.3541C11.1393 18.221 11.6996 17.1256 12.3291 16.068C12.9334 14.9852 13.5755 13.915 14.2554 12.8574C14.7842 12.0013 15.3004 11.1451 15.8041 10.289C16.3329 9.43282 16.8302 8.54519 17.296 7.62608C17.7619 6.70698 18.2088 5.7438 18.6369 4.73656C19.0398 3.72932 19.3924 2.65913 19.6945 1.52599C19.7701 1.32454 19.8897 1.15457 20.0534 1.01608C20.217 0.877579 20.4122 0.808331 20.6388 0.808331C20.8654 0.808331 21.0606 0.877579 21.2243 1.01608C21.3879 1.15457 21.5076 1.32454 21.5831 1.52599C21.8853 2.65913 22.2378 3.72932 22.6407 4.73656C23.0688 5.7438 23.522 6.70698 24.0005 7.62608C24.4789 8.54519 24.9699 9.43282 25.4736 10.289C26.0024 11.1703 26.5186 12.0265 27.0222 12.8574C27.7021 13.915 28.3568 14.9852 28.9863 16.068C29.6158 17.1256 30.1698 18.221 30.6483 19.3541C31.1267 20.4873 31.517 21.6708 31.8192 22.9046C32.0962 24.1637 32.2347 25.4983 32.2347 26.9084C32.2347 28.6459 31.9451 30.289 31.3659 31.8376C30.7868 33.3862 29.9558 34.7523 28.873 35.9358C27.7902 37.069 26.5438 37.944 25.1336 38.5609C23.7235 39.1779 22.2252 39.4863 20.6388 39.4863ZM20.6388 4.88765C19.9841 6.59996 19.2413 8.18007 18.4103 9.62797C17.5793 11.0759 16.7484 12.4923 15.9174 13.8773C15.2375 14.9349 14.608 15.9673 14.0288 16.9745C13.4245 17.9818 12.8957 19.0079 12.4424 20.0529C11.9891 21.0979 11.6366 22.187 11.3848 23.3201C11.1078 24.4281 10.9693 25.6242 10.9693 26.9084C10.9693 28.4193 11.2211 29.8294 11.7247 31.1388C12.2032 32.4231 12.8768 33.5436 13.7455 34.5005C14.6143 35.4574 15.6404 36.2002 16.8239 36.729C17.9822 37.283 19.2539 37.56 20.6388 37.56C22.0238 37.56 23.308 37.283 24.4915 36.729C25.6498 36.2002 26.6634 35.4574 27.5321 34.5005C28.4009 33.5436 29.087 32.4231 29.5907 31.1388C30.0691 29.8294 30.3083 28.4193 30.3083 26.9084C30.3083 25.6242 30.1698 24.4281 29.8928 23.3201C29.641 22.187 29.2885 21.0979 28.8352 20.0529C28.382 19.0079 27.8658 17.9818 27.2866 16.9745C26.6823 15.9673 26.0527 14.9349 25.398 13.8773C24.5419 12.4923 23.6983 11.0759 22.8673 9.62797C22.0364 8.18007 21.2935 6.59996 20.6388 4.88765Z" fill="#FFBA00"/>
</g>
<defs>
<clipPath id="clip0_1_397">
<rect width="40" height="40" fill="white" transform="matrix(1 0 0 -1 0.640625 40.0898)"/>
</clipPath>
</defs>
</svg>
