<svg width="41" height="41" viewBox="0 0 41 41" fill="none" xmlns="http://www.w3.org/2000/svg">
<g clip-path="url(#clip0_1_401)">
<path d="M39.62 1.5071C39.62 1.5071 39.6106 1.47248 39.5917 1.40323C39.5728 1.33398 39.513 1.249 39.4123 1.14827C39.3116 1.04755 39.1983 0.965714 39.0724 0.90276C38.9465 0.839806 38.808 0.808331 38.6569 0.808331H37.6748H30.7626C28.5719 0.833511 26.5133 0.890167 24.587 0.978302C22.6607 1.06644 20.8665 1.19864 19.2046 1.3749C17.5426 1.55117 15.994 1.81557 14.5587 2.1681C13.0478 2.52064 11.6943 2.9739 10.4982 3.52788C9.30214 4.08186 8.26342 4.74916 7.38209 5.52977C6.40003 6.36074 5.57535 7.32391 4.90806 8.41928C4.24076 9.51466 3.71826 10.7548 3.34054 12.1398C3.06355 13.0715 2.90617 14.3179 2.8684 15.8792C2.83063 17.4404 3.06355 19.052 3.56717 20.7139C3.76862 21.3434 4.01413 21.9478 4.30371 22.5269C4.5933 23.1061 4.93953 23.6727 5.34243 24.2266C4.76327 25.1332 4.20929 26.1152 3.68048 27.1728C3.15168 28.2556 2.68584 29.395 2.28294 30.5911C1.88004 31.7872 1.55269 33.04 1.30088 34.3494C1.07425 35.684 0.960938 37.069 0.960938 38.5043C0.960938 38.7813 1.05537 39.0142 1.24422 39.203C1.43308 39.3919 1.66601 39.4863 1.943 39.4863C2.19481 39.4863 2.41514 39.3919 2.604 39.203C2.79285 39.0142 2.88728 38.7813 2.88728 38.5043C2.88728 36.2883 3.17686 34.2109 3.75603 32.272C4.33519 30.3582 5.05285 28.6144 5.909 27.0406C6.76516 25.4668 7.68426 24.0756 8.66632 22.8669C9.64838 21.6582 10.5297 20.6635 11.3103 19.8829C12.4435 18.7498 13.6333 17.7111 14.8797 16.7668C16.1262 15.8225 17.3915 15.023 18.6758 14.3683C19.8845 13.7388 21.0428 13.254 22.1507 12.9141C23.2587 12.5741 24.2534 12.4042 25.1347 12.4042C25.4117 12.4042 25.6446 12.3097 25.8335 12.1209C26.0223 11.932 26.1167 11.7117 26.1167 11.4599C26.1167 11.1829 26.0223 10.95 25.8335 10.7611C25.6446 10.5723 25.4117 10.4778 25.1347 10.4778C24.0771 10.4778 22.9251 10.6604 21.6786 11.0255C20.4321 11.3906 19.1416 11.9257 17.807 12.6308C16.4221 13.3611 15.0623 14.2235 13.7277 15.2182C12.3931 16.2128 11.1341 17.3019 9.95055 18.4854C9.44693 18.989 8.89924 19.5808 8.30749 20.2606C7.71574 20.9405 7.11769 21.6834 6.51335 22.4892C6.28672 22.1366 6.07897 21.7652 5.89012 21.3749C5.70126 20.9846 5.54388 20.588 5.41797 20.1851C4.93953 18.5987 4.73809 17.113 4.81363 15.7281C4.88917 14.3431 5.01508 13.3233 5.19134 12.6686C5.87123 10.2008 7.05474 8.28708 8.74186 6.92731C10.4038 5.59272 12.5694 4.61066 15.2386 3.98114C17.9077 3.35161 21.0931 2.98648 24.7947 2.88576C28.5215 2.78504 32.7645 2.73468 37.5237 2.73468C36.9446 5.78157 36.2521 8.55149 35.4463 11.0444C34.6405 13.5625 33.7088 15.7973 32.6512 17.7488C31.5936 19.7004 30.4227 21.3812 29.1385 22.7913C27.8542 24.1763 26.4441 25.2968 24.9081 26.153C23.4979 26.9336 22.113 27.4372 20.7532 27.6639C19.3682 27.9157 18.084 28.0038 16.9005 27.9283C15.717 27.8527 14.6594 27.6764 13.7277 27.3995C12.796 27.1476 12.0532 26.9084 11.4992 26.6818C11.2726 26.5811 11.0459 26.4741 10.8193 26.3607C10.5927 26.2474 10.366 26.1278 10.1394 26.0019C9.91278 25.876 9.67356 25.8445 9.42175 25.9075C9.16994 25.9704 8.96849 26.1152 8.81741 26.3419C8.6915 26.5685 8.66002 26.814 8.72298 27.0784C8.78593 27.3428 8.93072 27.5379 9.15735 27.6639C9.43434 27.8149 9.70504 27.9597 9.96944 28.0982C10.2338 28.2367 10.5045 28.3563 10.7815 28.4571C11.3859 28.7089 12.1602 28.9733 13.1045 29.2503C14.0488 29.5272 15.1252 29.7161 16.3339 29.8168C16.5857 29.842 16.8501 29.8546 17.1271 29.8546H17.8826C19.3179 29.8546 20.6965 29.6846 22.0185 29.3447C23.3405 29.0047 24.6185 28.5074 25.8523 27.8527C27.4136 26.9714 28.8615 25.8382 30.1961 24.4533C31.5307 23.0683 32.7519 21.419 33.8599 19.5052C34.5146 18.3973 35.1189 17.2012 35.6729 15.9169C36.2269 14.6075 36.7494 13.2226 37.2404 11.7621C37.7315 10.3016 38.1658 8.75293 38.5436 7.11617C38.9465 5.45422 39.3116 3.72932 39.6389 1.94147C39.6641 1.79039 39.6578 1.6456 39.62 1.5071Z" fill="#FFBA00"/>
</g>
<defs>
<clipPath id="clip0_1_401">
<rect width="40" height="40" fill="white" transform="matrix(1 0 0 -1 0.300781 40.0898)"/>
</clipPath>
</defs>
</svg>
